<?xml version="1.0" standalone="no"?>
<!DOCTYPE svg PUBLIC "-//W3C//DTD SVG 20010904//EN"
 "http://www.w3.org/TR/2001/REC-SVG-20010904/DTD/svg10.dtd">
<svg version="1.0" xmlns="http://www.w3.org/2000/svg"
 width="5000.000000pt" height="5000.000000pt" viewBox="0 0 5000.000000 5000.000000"
 preserveAspectRatio="xMidYMid meet">

<g transform="translate(0.000000,5000.000000) scale(0.100000,-0.100000)"
fill="#000000" stroke="none">
<path d="M18981 33409 c0 -9 -8 -83 -16 -165 -136 -1368 -249 -3428 -300
-5439 -30 -1192 -38 -1931 -39 -3300 0 -1359 7 -1905 39 -3035 51 -1779 158
-3488 295 -4697 11 -95 21 -181 21 -190 7 -99 124 1135 173 1832 91 1272 138
2396 177 4220 15 687 15 2921 0 3800 -46 2725 -144 4794 -316 6685 -25 268
-31 324 -34 289z"/>
<path d="M25351 33400 c-1 -14 -10 -117 -21 -230 -135 -1396 -245 -3408 -295
-5430 -39 -1585 -51 -3975 -26 -5120 56 -2561 150 -4273 321 -5829 11 -101 20
-191 20 -199 0 -129 76 586 130 1223 112 1336 177 2727 222 4750 15 714 15
3088 -1 3970 -47 2695 -149 4807 -316 6600 -25 259 -32 319 -34 265z"/>
<path d="M31441 33177 c-220 -2376 -332 -5290 -334 -8687 -1 -2820 95 -5258
283 -7195 36 -378 73 -725 76 -722 8 8 89 820 128 1292 110 1309 172 2638 218
4655 15 695 15 3212 0 4065 -50 2702 -152 4812 -318 6560 -14 148 -26 271 -28
272 -1 2 -12 -106 -25 -240z"/>
<path d="M35657 33365 c-8 -57 -37 -372 -67 -715 -113 -1329 -204 -3130 -250
-4975 -36 -1426 -47 -4088 -22 -5195 40 -1754 89 -2899 177 -4115 46 -635 153
-1767 169 -1783 3 -3 6 4 6 16 0 11 9 105 20 209 224 2086 330 4551 330 7688
0 3340 -108 6212 -320 8560 -35 382 -34 376 -43 310z"/>
<path d="M13527 33380 c-13 -50 -93 -999 -131 -1560 -206 -2975 -277 -6917
-186 -10270 35 -1288 104 -2617 190 -3655 41 -494 118 -1261 128 -1289 15 -36
111 951 166 1709 87 1169 136 2269 177 3925 17 704 23 2989 10 3930 -35 2561
-128 4708 -282 6520 -43 513 -65 719 -72 690z"/>
<path d="M14417 31605 c-35 -205 -124 -1107 -171 -1725 -125 -1628 -179 -3236
-180 -5300 -1 -1172 4 -1432 39 -2405 51 -1387 155 -2686 295 -3676 18 -127
30 -182 30 -136 0 9 16 135 35 279 80 614 147 1297 195 1993 128 1883 158
4107 85 6470 -49 1576 -145 3015 -281 4205 -40 358 -38 346 -47 295z"/>
<path d="M19866 31593 c-39 -289 -127 -1179 -165 -1678 -125 -1623 -183 -3326
-184 -5360 -1 -1037 4 -1355 38 -2300 48 -1333 133 -2465 260 -3470 41 -321
57 -436 61 -432 8 7 88 645 124 982 110 1024 171 2050 222 3715 16 516 15
2431 -1 3150 -43 1948 -133 3532 -276 4865 -29 267 -66 569 -69 573 -2 1 -6
-19 -10 -45z"/>
<path d="M24381 31630 c-1 -8 -6 -44 -11 -80 -19 -132 -80 -705 -109 -1025
-113 -1230 -184 -2601 -223 -4270 -16 -715 -16 -2715 0 -3240 50 -1637 112
-2663 222 -3695 39 -357 115 -958 123 -966 4 -4 15 77 62 442 118 928 202
2016 250 3224 39 981 48 1467 48 2505 -1 2702 -110 5003 -328 6880 -25 210
-32 258 -34 225z"/>
<path d="M26231 31538 c-91 -796 -135 -1260 -185 -1998 -110 -1591 -158 -3128
-159 -5015 0 -2350 111 -4354 334 -6007 13 -92 24 -166 25 -165 10 9 90 644
129 1012 108 1032 166 1997 217 3630 16 512 16 2576 0 3275 -35 1506 -98 2784
-192 3925 -39 467 -141 1429 -153 1441 -2 3 -9 -42 -16 -98z"/>
<path d="M30490 31636 c0 -4 -13 -120 -30 -259 -162 -1372 -264 -3067 -312
-5162 -16 -707 -16 -2650 0 -3175 49 -1613 110 -2649 218 -3670 50 -482 134
-1108 134 -1009 0 8 11 95 25 194 164 1212 251 2431 311 4360 21 650 23 2394
5 3230 -46 2145 -147 3827 -317 5270 -14 121 -28 222 -30 224 -2 2 -4 1 -4 -3z"/>
<path d="M32342 31538 c-59 -525 -75 -667 -96 -893 -89 -934 -168 -2223 -206
-3380 -107 -3287 -16 -6319 255 -8455 56 -449 58 -456 66 -435 14 38 93 675
138 1125 81 796 140 1702 176 2665 36 997 40 1221 39 2420 -1 2046 -47 3450
-169 5160 -47 658 -168 1871 -189 1892 -1 2 -8 -43 -14 -99z"/>
<path d="M36551 31639 c0 -3 -14 -120 -31 -260 -163 -1393 -264 -3063 -311
-5154 -17 -710 -17 -2678 -1 -3190 46 -1493 96 -2391 183 -3315 37 -399 113
-1048 151 -1295 11 -77 12 -79 19 -40 16 93 91 704 123 1010 109 1036 166
2000 218 3705 23 780 12 2720 -22 3900 -39 1318 -125 2751 -226 3765 -42 425
-98 898 -103 874z"/>
<path d="M12542 31527 c-6 -56 -23 -201 -36 -322 -126 -1107 -223 -2588 -271
-4145 -37 -1228 -45 -3371 -16 -4245 45 -1322 88 -2105 161 -2925 58 -638 168
-1558 182 -1520 7 16 44 300 83 620 107 892 188 2001 230 3150 31 838 36 1093
42 1980 17 2620 -95 5223 -303 7065 -19 171 -37 338 -41 373 -3 34 -9 65 -13
67 -4 2 -12 -42 -18 -98z"/>
<path d="M18006 31610 c-8 -32 -80 -682 -105 -955 -174 -1834 -264 -4236 -248
-6555 6 -833 12 -1121 42 -1940 49 -1336 145 -2554 285 -3605 28 -210 31 -216
46 -115 21 135 81 623 109 880 173 1615 257 3728 235 5897 -14 1335 -38 2193
-85 3118 -67 1297 -129 2083 -241 3060 -28 244 -29 251 -38 215z"/>
<path d="M34652 31338 c-111 -984 -174 -1796 -237 -3048 -29 -592 -64 -1602
-66 -1905 0 -95 -4 -152 -9 -140 -4 11 -20 83 -35 160 -46 241 -184 745 -205
745 -4 0 -28 -66 -53 -147 -165 -522 -258 -1086 -298 -1801 -15 -273 -6 -944
15 -1172 50 -523 139 -953 278 -1331 28 -76 54 -139 58 -139 8 0 95 233 131
350 12 41 41 152 65 245 38 154 42 165 43 115 2 -102 21 -723 31 -1020 35
-974 97 -1941 176 -2720 45 -446 134 -1170 144 -1170 11 0 99 712 144 1160 77
757 137 1673 171 2585 32 869 37 1081 42 2067 15 2715 -98 5273 -313 7118 -13
118 -27 243 -31 278 -3 34 -9 62 -12 62 -4 0 -21 -132 -39 -292z"/>
<path d="M15310 28757 c0 -3 -11 -58 -25 -123 -285 -1315 -406 -3518 -289
-5249 28 -418 89 -971 145 -1315 47 -290 148 -783 169 -819 19 -34 145 582
204 999 115 804 160 1519 160 2530 0 1300 -83 2427 -250 3425 -48 285 -114
605 -114 552z"/>
<path d="M20737 28634 c-137 -658 -241 -1511 -291 -2399 -42 -724 -53 -1756
-27 -2330 46 -1014 156 -1896 319 -2565 l28 -115 37 150 c112 467 198 1029
256 1685 44 491 60 839 68 1470 17 1444 -97 2924 -308 3988 -22 112 -43 212
-48 224 -5 15 -15 -16 -34 -108z"/>
<path d="M27087 28523 c-207 -1058 -310 -2314 -309 -3763 1 -1046 55 -1835
182 -2660 51 -328 166 -869 181 -853 8 9 87 359 118 523 71 373 126 784 170
1270 46 497 61 838 68 1510 12 1201 -54 2310 -198 3330 -40 283 -141 836 -158
868 -4 8 -29 -94 -54 -225z"/>
<path d="M37421 28658 c-138 -646 -245 -1514 -296 -2403 -41 -729 -54 -1822
-26 -2375 51 -1046 161 -1919 319 -2545 l28 -110 33 135 c285 1198 391 2890
296 4725 -49 936 -153 1836 -290 2501 -19 92 -36 169 -38 171 -2 2 -14 -43
-26 -99z"/>
<path d="M33226 28668 c-78 -381 -120 -634 -171 -1041 -83 -663 -125 -1198
-155 -1987 -13 -341 -13 -1375 0 -1685 37 -869 118 -1633 240 -2245 49 -244
103 -471 111 -463 4 5 23 78 43 163 153 666 244 1385 297 2355 17 313 23 1360
10 1760 -31 965 -99 1758 -217 2525 -39 257 -124 700 -134 700 -4 0 -15 -37
-24 -82z"/>
<path d="M29670 28619 c0 -3 -18 -94 -40 -203 -217 -1077 -336 -2589 -316
-4046 12 -965 72 -1731 192 -2479 42 -264 158 -811 169 -799 6 6 74 303 104
453 98 492 173 1090 215 1725 55 823 55 1860 1 2825 -38 660 -113 1376 -200
1904 -47 284 -125 671 -125 620z"/>
<path d="M17185 28599 c-11 -31 -96 -477 -124 -659 -163 -1043 -241 -2248
-228 -3535 7 -686 22 -1019 68 -1515 61 -658 137 -1157 250 -1645 39 -169 40
-169 54 -110 144 590 241 1244 299 2025 60 796 64 1917 11 2890 -48 865 -150
1728 -281 2375 -20 99 -38 182 -40 184 -2 2 -6 -2 -9 -10z"/>
<path d="M23551 28574 c-22 -86 -92 -463 -125 -679 -159 -1041 -237 -2270
-223 -3505 8 -637 24 -992 68 -1475 39 -443 92 -853 154 -1194 35 -197 122
-597 134 -619 14 -25 130 517 181 843 126 812 184 1647 184 2685 0 1291 -83
2419 -250 3423 -33 201 -101 548 -109 555 -2 2 -8 -13 -14 -34z"/>
<path d="M16162 26988 c-159 -501 -253 -1070 -293 -1769 -13 -236 -7 -970 10
-1144 58 -597 149 -1029 298 -1422 20 -51 39 -93 42 -93 11 0 104 260 144 400
142 494 204 968 214 1632 12 799 -64 1517 -227 2143 -41 157 -116 394 -129
408 -4 4 -31 -66 -59 -155z"/>
<path d="M21567 27008 c-206 -636 -310 -1410 -310 -2298 1 -632 57 -1132 182
-1623 61 -236 165 -537 182 -520 30 30 150 405 203 633 97 422 143 831 153
1370 14 763 -65 1525 -222 2136 -45 174 -121 423 -134 437 -5 4 -29 -56 -54
-135z"/>
<path d="M22580 27125 c-53 -131 -141 -450 -189 -685 -119 -579 -169 -1167
-158 -1858 10 -654 73 -1130 214 -1622 40 -140 133 -400 144 -400 18 0 130
334 183 545 124 498 176 969 176 1615 0 910 -114 1727 -328 2350 -30 85 -30
85 -42 55z"/>
<path d="M27932 26988 c-202 -634 -302 -1389 -302 -2268 0 -646 52 -1117 176
-1615 53 -211 165 -545 183 -545 11 0 104 260 144 400 100 349 166 734 198
1163 7 86 13 156 15 155 1 -2 7 -70 14 -153 32 -424 99 -823 195 -1155 41
-145 136 -410 146 -410 14 0 122 310 169 485 132 499 191 1009 191 1665 1 701
-61 1303 -191 1875 -51 224 -160 579 -172 559 -3 -5 -24 -65 -46 -134 -156
-476 -253 -1040 -299 -1740 l-7 -115 -7 100 c-49 661 -106 1046 -219 1480 -41
157 -116 394 -129 408 -4 4 -31 -66 -59 -155z"/>
</g>
</svg>
